<mxfile host="drawio-plugin" modified="2021-09-22T14:12:13.166Z" agent="5.0 (X11; Linux x86_64) AppleWebKit/537.36 (KHTML, like Gecko) Chrome/89.0.4389.114 Safari/537.36" etag="2Eca2sLkMx-Y_st2U_sh" version="14.7.4" type="embed"><diagram id="G4t1x3i_cumIOjZ8GDXV" name="Page-1"><mxGraphModel dx="915" dy="830" grid="1" gridSize="10" guides="1" tooltips="1" connect="1" arrows="1" fold="1" page="1" pageScale="1" pageWidth="850" pageHeight="1100" math="0" shadow="0"><root><mxCell id="0"/><mxCell id="1" parent="0"/><mxCell id="4NMri5ObQx2eB0Vx6lmc-10" value="" style="edgeStyle=orthogonalEdgeStyle;rounded=0;orthogonalLoop=1;jettySize=auto;html=1;entryX=0;entryY=0.5;entryDx=0;entryDy=0;startArrow=classic;startFill=1;" parent="1" source="4NMri5ObQx2eB0Vx6lmc-1" target="4NMri5ObQx2eB0Vx6lmc-4" edge="1"><mxGeometry relative="1" as="geometry"/></mxCell><mxCell id="Gfm62hS2zhEuvZ2v64Gk-5" value="Get addresses" style="edgeStyle=orthogonalEdgeStyle;rounded=0;orthogonalLoop=1;jettySize=auto;html=1;entryX=0;entryY=0.5;entryDx=0;entryDy=0;" parent="1" source="4NMri5ObQx2eB0Vx6lmc-1" target="Gfm62hS2zhEuvZ2v64Gk-1" edge="1"><mxGeometry x="-0.2" relative="1" as="geometry"><Array as="points"><mxPoint x="55" y="80"/></Array><mxPoint as="offset"/></mxGeometry></mxCell><mxCell id="ENQS6q1PjWJlhAXhEhIM-2" value="Get messages" style="edgeStyle=orthogonalEdgeStyle;rounded=0;orthogonalLoop=1;jettySize=auto;html=1;entryX=0;entryY=0.5;entryDx=0;entryDy=0;" parent="1" source="4NMri5ObQx2eB0Vx6lmc-1" target="ENQS6q1PjWJlhAXhEhIM-1" edge="1"><mxGeometry relative="1" as="geometry"><Array as="points"><mxPoint x="115" y="260"/><mxPoint x="115" y="190"/></Array></mxGeometry></mxCell><mxCell id="4NMri5ObQx2eB0Vx6lmc-1" value="Client" style="shape=umlActor;verticalLabelPosition=bottom;verticalAlign=top;html=1;outlineConnect=0;" parent="1" vertex="1"><mxGeometry x="40" y="250" width="30" height="60" as="geometry"/></mxCell><mxCell id="4NMri5ObQx2eB0Vx6lmc-13" value="Send message&lt;br&gt;Push message" style="edgeStyle=orthogonalEdgeStyle;rounded=0;orthogonalLoop=1;jettySize=auto;html=1;entryX=0;entryY=0.75;entryDx=0;entryDy=0;startArrow=classic;startFill=1;" parent="1" source="4NMri5ObQx2eB0Vx6lmc-3" target="4NMri5ObQx2eB0Vx6lmc-4" edge="1"><mxGeometry relative="1" as="geometry"/></mxCell><mxCell id="4NMri5ObQx2eB0Vx6lmc-3" value="Client" style="shape=umlActor;verticalLabelPosition=bottom;verticalAlign=top;html=1;outlineConnect=0;" parent="1" vertex="1"><mxGeometry x="40" y="360" width="30" height="60" as="geometry"/></mxCell><mxCell id="4NMri5ObQx2eB0Vx6lmc-16" value="PUB to recipient partition&lt;br&gt;&lt;div&gt;SUB to assigned partitions&lt;/div&gt;" style="rounded=0;orthogonalLoop=1;jettySize=auto;html=1;entryX=0.008;entryY=0.35;entryDx=0;entryDy=0;entryPerimeter=0;startArrow=classic;startFill=1;exitX=1;exitY=0.5;exitDx=0;exitDy=0;" parent="1" source="4NMri5ObQx2eB0Vx6lmc-4" target="4NMri5ObQx2eB0Vx6lmc-9" edge="1"><mxGeometry x="0.1682" relative="1" as="geometry"><mxPoint as="offset"/></mxGeometry></mxCell><mxCell id="4NMri5ObQx2eB0Vx6lmc-4" value="&lt;font style=&quot;font-size: 12px&quot;&gt;Messaging&lt;/font&gt;" style="rounded=1;whiteSpace=wrap;html=1;gradientColor=#ffa500;fillColor=#ffcd28;strokeColor=#d79b00;" parent="1" vertex="1"><mxGeometry x="160" y="280" width="120" height="60" as="geometry"/></mxCell><mxCell id="Gfm62hS2zhEuvZ2v64Gk-10" value="Process&lt;br&gt;messages" style="edgeStyle=orthogonalEdgeStyle;rounded=0;orthogonalLoop=1;jettySize=auto;html=1;entryX=0.5;entryY=1;entryDx=0;entryDy=0;" parent="1" source="4NMri5ObQx2eB0Vx6lmc-9" target="Gfm62hS2zhEuvZ2v64Gk-9" edge="1"><mxGeometry x="-0.2308" relative="1" as="geometry"><mxPoint as="offset"/></mxGeometry></mxCell><mxCell id="4NMri5ObQx2eB0Vx6lmc-9" value="PUB/SUB&lt;br&gt;backplane" style="strokeWidth=2;html=1;shape=mxgraph.flowchart.direct_data;whiteSpace=wrap;gradientColor=#97d077;fillColor=#d5e8d4;strokeColor=#82b366;" parent="1" vertex="1"><mxGeometry x="520" y="280" width="120" height="80" as="geometry"/></mxCell><mxCell id="4NMri5ObQx2eB0Vx6lmc-20" value="History DB" style="shape=cylinder3;whiteSpace=wrap;html=1;boundedLbl=1;backgroundOutline=1;size=15;gradientColor=#7ea6e0;fillColor=#dae8fc;strokeColor=#6c8ebf;" parent="1" vertex="1"><mxGeometry x="520" y="160" width="120" height="80" as="geometry"/></mxCell><mxCell id="4NMri5ObQx2eB0Vx6lmc-25" value="&lt;font style=&quot;font-size: 12px&quot;&gt;Get history&lt;/font&gt;" style="rounded=0;orthogonalLoop=1;jettySize=auto;html=1;entryX=0;entryY=0.5;entryDx=0;entryDy=0;entryPerimeter=0;startArrow=none;startFill=0;exitX=1;exitY=0.75;exitDx=0;exitDy=0;" parent="1" source="ENQS6q1PjWJlhAXhEhIM-1" target="4NMri5ObQx2eB0Vx6lmc-20" edge="1"><mxGeometry x="0.3336" y="-2" relative="1" as="geometry"><mxPoint x="370" y="95" as="sourcePoint"/><mxPoint x="600" y="240" as="targetPoint"/><mxPoint as="offset"/></mxGeometry></mxCell><mxCell id="Gfm62hS2zhEuvZ2v64Gk-1" value="&lt;font style=&quot;font-size: 12px&quot;&gt;Connect&lt;br&gt;&lt;/font&gt;" style="rounded=1;whiteSpace=wrap;html=1;gradientColor=#ffa500;fillColor=#ffcd28;strokeColor=#d79b00;" parent="1" vertex="1"><mxGeometry x="160" y="50" width="120" height="60" as="geometry"/></mxCell><mxCell id="Gfm62hS2zhEuvZ2v64Gk-11" value="Into state" style="edgeStyle=orthogonalEdgeStyle;rounded=0;orthogonalLoop=1;jettySize=auto;html=1;entryX=1;entryY=0.5;entryDx=0;entryDy=0;entryPerimeter=0;exitX=0.5;exitY=0;exitDx=0;exitDy=0;" parent="1" source="Gfm62hS2zhEuvZ2v64Gk-9" target="4NMri5ObQx2eB0Vx6lmc-20" edge="1"><mxGeometry x="0.2308" relative="1" as="geometry"><Array as="points"><mxPoint x="740" y="200"/></Array><mxPoint as="offset"/><mxPoint x="740" y="250" as="sourcePoint"/></mxGeometry></mxCell><mxCell id="Gfm62hS2zhEuvZ2v64Gk-9" value="Materialize" style="rounded=1;whiteSpace=wrap;html=1;gradientColor=#ffa500;fillColor=#ffcd28;strokeColor=#d79b00;" parent="1" vertex="1"><mxGeometry x="680" y="230" width="120" height="60" as="geometry"/></mxCell><mxCell id="QVO6qr5AluIkjkF2SAql-7" value="Update" style="edgeStyle=orthogonalEdgeStyle;rounded=0;orthogonalLoop=1;jettySize=auto;html=1;entryX=1;entryY=0.5;entryDx=0;entryDy=0;entryPerimeter=0;exitX=0.5;exitY=0;exitDx=0;exitDy=0;" parent="1" source="Gfm62hS2zhEuvZ2v64Gk-13" target="QVO6qr5AluIkjkF2SAql-2" edge="1"><mxGeometry relative="1" as="geometry"/></mxCell><mxCell id="Gfm62hS2zhEuvZ2v64Gk-13" value="Configurator" style="rounded=1;whiteSpace=wrap;html=1;gradientColor=#ffa500;fillColor=#ffcd28;strokeColor=#d79b00;" parent="1" vertex="1"><mxGeometry x="680" y="100" width="120" height="60" as="geometry"/></mxCell><mxCell id="QVO6qr5AluIkjkF2SAql-2" value="Config DB" style="shape=cylinder3;whiteSpace=wrap;html=1;boundedLbl=1;backgroundOutline=1;size=15;gradientColor=#7ea6e0;fillColor=#dae8fc;strokeColor=#6c8ebf;" parent="1" vertex="1"><mxGeometry x="520" y="40" width="120" height="80" as="geometry"/></mxCell><mxCell id="ENQS6q1PjWJlhAXhEhIM-1" value="&lt;font style=&quot;font-size: 12px&quot;&gt;History&lt;/font&gt;" style="rounded=1;whiteSpace=wrap;html=1;gradientColor=#ffa500;fillColor=#ffcd28;strokeColor=#d79b00;" parent="1" vertex="1"><mxGeometry x="160" y="160" width="120" height="60" as="geometry"/></mxCell><mxCell id="ugsCivUr18LWlaLhRu20-2" value="&lt;font style=&quot;font-size: 12px&quot;&gt;ID Gen&lt;/font&gt;" style="rounded=1;whiteSpace=wrap;html=1;gradientColor=#ffa500;fillColor=#ffcd28;strokeColor=#d79b00;" parent="1" vertex="1"><mxGeometry x="520" y="400" width="120" height="60" as="geometry"/></mxCell><mxCell id="ugsCivUr18LWlaLhRu20-3" value="Get IDs" style="endArrow=classic;html=1;exitX=1;exitY=0.75;exitDx=0;exitDy=0;entryX=0;entryY=0.5;entryDx=0;entryDy=0;" parent="1" source="4NMri5ObQx2eB0Vx6lmc-4" target="ugsCivUr18LWlaLhRu20-2" edge="1"><mxGeometry x="0.0444" y="-3" width="50" height="50" relative="1" as="geometry"><mxPoint x="530" y="115" as="sourcePoint"/><mxPoint x="290" y="305" as="targetPoint"/><mxPoint as="offset"/></mxGeometry></mxCell><mxCell id="EuwBY0g-FvcaoKwboI4n-1" value="&lt;font style=&quot;font-size: 10px&quot;&gt;PUB config&lt;br&gt;changes&lt;/font&gt;" style="rounded=1;whiteSpace=wrap;html=1;gradientColor=#97d077;fillColor=#d5e8d4;strokeColor=#82b366;" parent="1" vertex="1"><mxGeometry x="470" y="70" width="60" height="40" as="geometry"/></mxCell><mxCell id="EuwBY0g-FvcaoKwboI4n-3" value="&lt;font style=&quot;font-size: 10px&quot;&gt;SUB config&lt;br&gt;changes&lt;/font&gt;" style="rounded=1;whiteSpace=wrap;html=1;gradientColor=#97d077;fillColor=#d5e8d4;strokeColor=#82b366;" parent="1" vertex="1"><mxGeometry x="270" y="40" width="60" height="40" as="geometry"/></mxCell><mxCell id="EuwBY0g-FvcaoKwboI4n-4" value="&lt;font style=&quot;font-size: 10px&quot;&gt;SUB config&lt;br&gt;changes&lt;/font&gt;" style="rounded=1;whiteSpace=wrap;html=1;gradientColor=#97d077;fillColor=#d5e8d4;strokeColor=#82b366;" parent="1" vertex="1"><mxGeometry x="270" y="150" width="60" height="40" as="geometry"/></mxCell><mxCell id="EuwBY0g-FvcaoKwboI4n-5" value="&lt;font style=&quot;font-size: 10px&quot;&gt;SUB config&lt;br&gt;changes&lt;/font&gt;" style="rounded=1;whiteSpace=wrap;html=1;gradientColor=#97d077;fillColor=#d5e8d4;strokeColor=#82b366;" parent="1" vertex="1"><mxGeometry x="270" y="260" width="60" height="40" as="geometry"/></mxCell></root></mxGraphModel></diagram></mxfile>